<mxfile host="app.diagrams.net" modified="2023-05-01T12:35:37.485Z" agent="Mozilla/5.0 (Windows NT 10.0; Win64; x64) AppleWebKit/537.36 (KHTML, like Gecko) Chrome/112.0.0.0 Safari/537.36 Edg/112.0.1722.64" etag="6bbTTgkwn5w4NOt9iv0C" version="21.1.1" type="device">
  <diagram name="第 1 页" id="5kjJqf_ndcWOBapv8ov8">
    <mxGraphModel dx="752" dy="1001" grid="1" gridSize="10" guides="1" tooltips="1" connect="1" arrows="1" fold="1" page="1" pageScale="1" pageWidth="827" pageHeight="1169" math="0" shadow="0">
      <root>
        <mxCell id="0" />
        <mxCell id="1" parent="0" />
        <mxCell id="t6f_FqSWW0O6uTlnTDYf-6" value="职工" style="swimlane;whiteSpace=wrap;html=1;fillColor=#dae8fc;strokeColor=#6c8ebf;" vertex="1" parent="1">
          <mxGeometry x="120" y="180" width="200" height="270" as="geometry" />
        </mxCell>
        <mxCell id="t6f_FqSWW0O6uTlnTDYf-7" value="&lt;b&gt;&lt;u&gt;员工ID&lt;/u&gt;&lt;/b&gt;" style="text;html=1;strokeColor=#A9C4EB;fillColor=none;align=center;verticalAlign=middle;whiteSpace=wrap;rounded=0;" vertex="1" parent="t6f_FqSWW0O6uTlnTDYf-6">
          <mxGeometry y="30" width="200" height="30" as="geometry" />
        </mxCell>
        <mxCell id="t6f_FqSWW0O6uTlnTDYf-8" value="员工姓名" style="text;html=1;strokeColor=#A9C4EB;fillColor=none;align=center;verticalAlign=middle;whiteSpace=wrap;rounded=0;" vertex="1" parent="t6f_FqSWW0O6uTlnTDYf-6">
          <mxGeometry y="60" width="200" height="30" as="geometry" />
        </mxCell>
        <mxCell id="t6f_FqSWW0O6uTlnTDYf-9" value="性别" style="text;html=1;strokeColor=#A9C4EB;fillColor=none;align=center;verticalAlign=middle;whiteSpace=wrap;rounded=0;" vertex="1" parent="t6f_FqSWW0O6uTlnTDYf-6">
          <mxGeometry y="90" width="200" height="30" as="geometry" />
        </mxCell>
        <mxCell id="t6f_FqSWW0O6uTlnTDYf-10" value="年龄" style="text;html=1;strokeColor=#A9C4EB;fillColor=none;align=center;verticalAlign=middle;whiteSpace=wrap;rounded=0;" vertex="1" parent="t6f_FqSWW0O6uTlnTDYf-6">
          <mxGeometry y="120" width="200" height="30" as="geometry" />
        </mxCell>
        <mxCell id="t6f_FqSWW0O6uTlnTDYf-11" value="岗位" style="text;html=1;strokeColor=#A9C4EB;fillColor=none;align=center;verticalAlign=middle;whiteSpace=wrap;rounded=0;" vertex="1" parent="t6f_FqSWW0O6uTlnTDYf-6">
          <mxGeometry y="150" width="200" height="30" as="geometry" />
        </mxCell>
        <mxCell id="t6f_FqSWW0O6uTlnTDYf-12" value="所属部门" style="text;html=1;strokeColor=#A9C4EB;fillColor=none;align=center;verticalAlign=middle;whiteSpace=wrap;rounded=0;" vertex="1" parent="t6f_FqSWW0O6uTlnTDYf-6">
          <mxGeometry y="180" width="200" height="30" as="geometry" />
        </mxCell>
        <mxCell id="t6f_FqSWW0O6uTlnTDYf-13" value="薪资" style="text;html=1;strokeColor=#A9C4EB;fillColor=none;align=center;verticalAlign=middle;whiteSpace=wrap;rounded=0;" vertex="1" parent="t6f_FqSWW0O6uTlnTDYf-6">
          <mxGeometry y="210" width="200" height="30" as="geometry" />
        </mxCell>
        <mxCell id="t6f_FqSWW0O6uTlnTDYf-14" value="绩效评级" style="text;html=1;strokeColor=#A9C4EB;fillColor=none;align=center;verticalAlign=middle;whiteSpace=wrap;rounded=0;" vertex="1" parent="t6f_FqSWW0O6uTlnTDYf-6">
          <mxGeometry y="240" width="200" height="30" as="geometry" />
        </mxCell>
        <mxCell id="t6f_FqSWW0O6uTlnTDYf-16" value="项目" style="swimlane;whiteSpace=wrap;html=1;fillColor=#dae8fc;strokeColor=#6c8ebf;" vertex="1" parent="1">
          <mxGeometry x="500" y="230" width="200" height="150" as="geometry" />
        </mxCell>
        <mxCell id="t6f_FqSWW0O6uTlnTDYf-17" value="&lt;b&gt;&lt;u&gt;项目名&lt;/u&gt;&lt;/b&gt;" style="text;html=1;strokeColor=#A9C4EB;fillColor=none;align=center;verticalAlign=middle;whiteSpace=wrap;rounded=0;" vertex="1" parent="t6f_FqSWW0O6uTlnTDYf-16">
          <mxGeometry y="30" width="200" height="30" as="geometry" />
        </mxCell>
        <mxCell id="t6f_FqSWW0O6uTlnTDYf-18" value="&lt;b&gt;&lt;u&gt;负责部门名&lt;/u&gt;&lt;/b&gt;" style="text;html=1;strokeColor=#A9C4EB;fillColor=none;align=center;verticalAlign=middle;whiteSpace=wrap;rounded=0;" vertex="1" parent="t6f_FqSWW0O6uTlnTDYf-16">
          <mxGeometry y="60" width="200" height="30" as="geometry" />
        </mxCell>
        <mxCell id="t6f_FqSWW0O6uTlnTDYf-19" value="开始时间" style="text;html=1;strokeColor=#A9C4EB;fillColor=none;align=center;verticalAlign=middle;whiteSpace=wrap;rounded=0;" vertex="1" parent="t6f_FqSWW0O6uTlnTDYf-16">
          <mxGeometry y="90" width="200" height="30" as="geometry" />
        </mxCell>
        <mxCell id="t6f_FqSWW0O6uTlnTDYf-20" value="结束时间" style="text;html=1;strokeColor=#A9C4EB;fillColor=none;align=center;verticalAlign=middle;whiteSpace=wrap;rounded=0;" vertex="1" parent="t6f_FqSWW0O6uTlnTDYf-16">
          <mxGeometry y="120" width="200" height="30" as="geometry" />
        </mxCell>
        <mxCell id="t6f_FqSWW0O6uTlnTDYf-26" value="部门" style="swimlane;whiteSpace=wrap;html=1;fillColor=#dae8fc;strokeColor=#6c8ebf;" vertex="1" parent="1">
          <mxGeometry x="500" y="520" width="200" height="90" as="geometry" />
        </mxCell>
        <mxCell id="t6f_FqSWW0O6uTlnTDYf-27" value="&lt;b&gt;&lt;u&gt;部门名&lt;/u&gt;&lt;/b&gt;" style="text;html=1;strokeColor=#A9C4EB;fillColor=none;align=center;verticalAlign=middle;whiteSpace=wrap;rounded=0;" vertex="1" parent="t6f_FqSWW0O6uTlnTDYf-26">
          <mxGeometry y="30" width="200" height="30" as="geometry" />
        </mxCell>
        <mxCell id="t6f_FqSWW0O6uTlnTDYf-28" value="&lt;b&gt;&lt;u&gt;负责人ID&lt;/u&gt;&lt;/b&gt;" style="text;html=1;strokeColor=#A9C4EB;fillColor=none;align=center;verticalAlign=middle;whiteSpace=wrap;rounded=0;" vertex="1" parent="t6f_FqSWW0O6uTlnTDYf-26">
          <mxGeometry y="60" width="200" height="30" as="geometry" />
        </mxCell>
        <mxCell id="t6f_FqSWW0O6uTlnTDYf-31" value="参与项目" style="swimlane;whiteSpace=wrap;html=1;fillColor=#dae8fc;strokeColor=#6c8ebf;" vertex="1" parent="1">
          <mxGeometry x="120" y="520" width="200" height="90" as="geometry" />
        </mxCell>
        <mxCell id="t6f_FqSWW0O6uTlnTDYf-32" value="&lt;b&gt;&lt;u&gt;员工ID&lt;/u&gt;&lt;/b&gt;" style="text;html=1;strokeColor=#A9C4EB;fillColor=none;align=center;verticalAlign=middle;whiteSpace=wrap;rounded=0;" vertex="1" parent="t6f_FqSWW0O6uTlnTDYf-31">
          <mxGeometry y="30" width="200" height="30" as="geometry" />
        </mxCell>
        <mxCell id="t6f_FqSWW0O6uTlnTDYf-33" value="&lt;b&gt;&lt;u&gt;项目名&lt;/u&gt;&lt;/b&gt;" style="text;html=1;strokeColor=#A9C4EB;fillColor=none;align=center;verticalAlign=middle;whiteSpace=wrap;rounded=0;" vertex="1" parent="t6f_FqSWW0O6uTlnTDYf-31">
          <mxGeometry y="60" width="200" height="30" as="geometry" />
        </mxCell>
        <mxCell id="t6f_FqSWW0O6uTlnTDYf-34" style="edgeStyle=orthogonalEdgeStyle;rounded=0;orthogonalLoop=1;jettySize=auto;html=1;entryX=0;entryY=0.5;entryDx=0;entryDy=0;" edge="1" parent="1" source="t6f_FqSWW0O6uTlnTDYf-12" target="t6f_FqSWW0O6uTlnTDYf-27">
          <mxGeometry relative="1" as="geometry" />
        </mxCell>
        <mxCell id="t6f_FqSWW0O6uTlnTDYf-35" style="edgeStyle=orthogonalEdgeStyle;rounded=0;orthogonalLoop=1;jettySize=auto;html=1;entryX=1;entryY=0.25;entryDx=0;entryDy=0;" edge="1" parent="1" source="t6f_FqSWW0O6uTlnTDYf-28" target="t6f_FqSWW0O6uTlnTDYf-7">
          <mxGeometry relative="1" as="geometry">
            <Array as="points">
              <mxPoint x="420" y="595" />
              <mxPoint x="420" y="217" />
            </Array>
          </mxGeometry>
        </mxCell>
        <mxCell id="t6f_FqSWW0O6uTlnTDYf-36" style="edgeStyle=orthogonalEdgeStyle;rounded=0;orthogonalLoop=1;jettySize=auto;html=1;entryX=1;entryY=0.5;entryDx=0;entryDy=0;" edge="1" parent="1" source="t6f_FqSWW0O6uTlnTDYf-18" target="t6f_FqSWW0O6uTlnTDYf-27">
          <mxGeometry relative="1" as="geometry">
            <Array as="points">
              <mxPoint x="720" y="305" />
              <mxPoint x="720" y="565" />
            </Array>
          </mxGeometry>
        </mxCell>
        <mxCell id="t6f_FqSWW0O6uTlnTDYf-37" style="edgeStyle=orthogonalEdgeStyle;rounded=0;orthogonalLoop=1;jettySize=auto;html=1;entryX=0;entryY=0.5;entryDx=0;entryDy=0;" edge="1" parent="1" source="t6f_FqSWW0O6uTlnTDYf-32" target="t6f_FqSWW0O6uTlnTDYf-7">
          <mxGeometry relative="1" as="geometry">
            <Array as="points">
              <mxPoint x="100" y="565" />
              <mxPoint x="100" y="225" />
            </Array>
          </mxGeometry>
        </mxCell>
        <mxCell id="t6f_FqSWW0O6uTlnTDYf-38" style="edgeStyle=orthogonalEdgeStyle;rounded=0;orthogonalLoop=1;jettySize=auto;html=1;" edge="1" parent="1" source="t6f_FqSWW0O6uTlnTDYf-33">
          <mxGeometry relative="1" as="geometry">
            <mxPoint x="500" y="270" as="targetPoint" />
            <Array as="points">
              <mxPoint x="400" y="595" />
              <mxPoint x="400" y="270" />
              <mxPoint x="500" y="270" />
            </Array>
          </mxGeometry>
        </mxCell>
      </root>
    </mxGraphModel>
  </diagram>
</mxfile>
